# xmcd
#
# Track frame offsets:
#	150
#	14918
#	22115
#	34952
#	47076
#	54073
#	65802
#	77462
#	81214
#	95076
#	107291
#	112562
#	125517
#
# Disc length: 1850 seconds
#
# Revision: 0
# Processed by: cddbd v1.5.2PL0 Copyright (c) Steve Scherf et al.
# Submitted via: EZCDAudioConverter 1.3.4.1
#
DISCID=a107380d
DTITLE=Flaviola - E O Bando Do Sol 
DYEAR=1900
DGENRE=
TTITLE0=Canto Funebre
TTITLE1=O Tempo
TTITLE2=Noite
TTITLE3=Desespêro
TTITLE4=Canção De Outono
TTITLE5=Do Amigo
TTITLE6=Brilhante Estrela
TTITLE7=Como Os Bois
TTITLE8=Palavras
TTITLE9=Balalaica
TTITLE10=Olhos
TTITLE11=Romance Da Lua Lua
TTITLE12=Asas
EXTD=
EXTT0=
EXTT1=
EXTT2=
EXTT3=
EXTT4=
EXTT5=
EXTT6=
EXTT7=
EXTT8=
EXTT9=
EXTT10=
EXTT11=
EXTT12=
PLAYORDER=
